# xmcd CD database file
#
# Track frame offsets:
#	150
#	14907
#	27985
#	41565
#	54808
#	70521
#	84619
#	99089
#	113703
#	127783
#	141625
#	155484
#	179194
#	191101
#	204024
#	216517
#	228858
#	242337
#	257787
#	273125
#	286845
#	305220
#
# Disc length: 4250 seconds
#
# Revision: 1
# Processed by: cddbd v1.5.2PL0 Copyright (c) Steve Scherf et al.
# Submitted via: CDex 1.51
#
DISCID=38109816
DTITLE=Cootie Williams - The Ellington's Days - Duke Ellington and His Orchestra  {1929-1940}
DYEAR=2002
DGENRE=Jazz
TTITLE0=Jazz Lips   [1929]
TTITLE1=Double Check Stomp   [1930]
TTITLE2=Shout'Em Aunt Tillie   [1930]
TTITLE3=Sweet Charit  (The Harlem Footwarmers)   [1930]
TTITLE4=Echoes Of The Jungle   [1930]
TTITLE5=Bugle Call Rag   [1932]
TTITLE6=Bundle Of Blues   [1933]
TTITLE7=Blue Feeling   [1934]
TTITLE8=Moonglow   [1934]
TTITLE9=Echoes Of Harlem   [1936]
TTITLE10=The New East St-Louis Toodle-OO   [1937]
TTITLE11=Prologue and New Black And Tan Fantasy   [1938]
TTITLE12=Mighty Like The Blues   [1938]
TTITLE13=Cotton Club Stomp   [1939]
TTITLE14=Doin' The Voom Voom   [1939]
TTITLE15=Bouncing Buoyancy   [1939]
TTITLE16=Country Gal   [1939]
TTITLE17=Concerto For Cootie   [1940]
TTITLE18=Never No Lament   [1940]
TTITLE19=Harlem Air-Shaft   [1940]
TTITLE20=Riding On A Blue Note   [1940]
TTITLE21=She's Gone  (Cootie Williams and His Rug Cutters)   [1939]
EXTD=YEAR: 2002
EXTT0=
EXTT1=
EXTT2=
EXTT3=
EXTT4=
EXTT5=
EXTT6=
EXTT7=
EXTT8=
EXTT9=
EXTT10=
EXTT11=
EXTT12=
EXTT13=
EXTT14=
EXTT15=
EXTT16=
EXTT17=
EXTT18=
EXTT19=
EXTT20=
EXTT21=
PLAYORDER=
